<?xml version="1.0" standalone="no"?>
<svg viewBox="0 0 200 200" xmlns="http://www.w3.org/2000/svg">
  <path fill="#0F62FE" d="M44.5,-67.4C58.2,-60.4,70.4,-49,78.8,-34.8C87.1,-20.5,91.7,-3.3,88.8,12.3C85.8,27.9,75.3,42,63.4,53.8C51.4,65.6,38.1,75,23.4,78.9C8.7,82.8,-7.3,81.1,-21.6,75.9C-35.9,70.6,-48.4,61.7,-57,50.3C-65.6,38.8,-70.3,24.8,-73.6,9.8C-76.9,-5.1,-78.9,-21.1,-75.3,-36.6C-71.6,-52.1,-62.2,-67.2,-48.8,-74.4C-35.3,-81.5,-17.6,-80.8,-1.1,-79C15.4,-77.2,30.7,-74.5,44.5,-67.4Z" transform="translate(100 100)" />
</svg>
