<?xml version="1.0" standalone="no"?>
<svg viewBox="0 0 200 200" xmlns="http://www.w3.org/2000/svg">
  <path fill="#F1C21B" d="M19.1,-37.4C26,-25.3,33.7,-22.1,44.5,-15.4C55.3,-8.6,69.2,1.7,72.2,13.4C75.1,25.1,67.2,38.2,56.1,45.5C45,52.9,30.7,54.4,18.5,53.8C6.3,53.3,-3.9,50.6,-11.4,45.4C-18.8,40.2,-23.6,32.4,-37,26.6C-50.4,20.9,-72.4,17.2,-75.9,9.3C-79.5,1.5,-64.7,-10.7,-55.8,-23.5C-46.8,-36.3,-43.7,-49.8,-35.4,-61.2C-27.1,-72.5,-13.6,-81.8,-3.7,-76C6.1,-70.2,12.2,-49.4,19.1,-37.4Z" transform="translate(100 100)" />
</svg>
